Coordinates
nRows=8
nColumns=38

# SIMM Motion File Header:
name Coordinates
datacolumns 38
datarows 8
otherdata 1
range 1.00658000000000000000 1.01357999999999990000

Units are S.I. units (second, meters, Newtons, ...)
Angles are in degrees.

endheader
time	pelvis_tilt	pelvis_list	pelvis_rotation	pelvis_tx	pelvis_ty	pelvis_tz	hip_flexion_r	hip_adduction_r	hip_rotation_r	knee_angle_r	ankle_angle_r	subtalar_angle_r	mtp_angle_r	hip_flexion_l	hip_adduction_l	hip_rotation_l	knee_angle_l	ankle_angle_l	subtalar_angle_l	mtp_angle_l	lumbar_extension	lumbar_bending	lumbar_rotation	arm_flex_r	arm_add_r	arm_rot_r	elbow_flex_r	pro_sup_r	wrist_flex_r	wrist_dev_r	arm_flex_l	arm_add_l	arm_rot_l	elbow_flex_l	pro_sup_l	wrist_flex_l	wrist_dev_l
      1.00658000000000000000	     -0.93927167786349897000	     -2.96037197045191910000	     -6.74222442695313620000	      0.72903944111599861000	      0.95818591653075680000	     -0.35856428341312907000	      3.97780431516825760000	      6.50295097714605140000	      6.79034791705278630000	    -32.89602962924531200000	     20.48372199704661500000	      0.00000000000000192029	     -0.00000000000001115301	     37.20543414628392000000	     -3.43440120033784520000	     -5.38623397549151760000	   -104.65310493013824000000	      1.68779134403347380000	      0.00000000000000415169	     -0.00000000000001170219	    -15.28316647058853100000	      5.88607092448336470000	      8.16740603910860050000	     -5.23627451125500000000	    -35.16836472629504600000	     -4.97682014785768790000	    118.41866259795871000000	     67.53735761333835800000	     -0.00000000000000099301	     -0.00000000000000110128	    -36.09007091974699900000	    -22.01196844172496700000	     -0.35144668930693462000	    124.07708709450139000000	    100.23730190027568000000	     -0.00000000000000754381	     -0.00000000000000188736
      1.00757999999999990000	     -0.94972860598103359000	     -2.90292117926552610000	     -6.71965359259681700000	      0.72926404049617555000	      0.95874706126523879000	     -0.35854679877730405000	      3.61364273572585450000	      6.39062156680276590000	      6.80505793052095060000	    -32.54602973574255000000	     20.31853620087319400000	      0.00000000000000179819	     -0.00000000000001115963	     37.37893985996750200000	     -3.36359987390589050000	     -5.38901473975385860000	   -104.34873457782406000000	      1.74223983556460870000	      0.00000000000000410713	     -0.00000000000001179045	    -15.22460714948125600000	      5.81727158818923050000	      8.24399240112420100000	     -5.18586298218697730000	    -35.11324399830748900000	     -4.82016350170005920000	    118.53472982834690000000	     67.59875242300917400000	     -0.00000000000000100627	     -0.00000000000000101489	    -36.19346112442625000000	    -22.04569374668932700000	     -0.34675547585954292000	    124.18473558486805000000	    100.24583688756704000000	     -0.00000000000000763012	     -0.00000000000000194644
      1.00858000000000000000	     -0.95971026908826174000	     -2.84407342228296710000	     -6.69672598820558560000	      0.72949439187049303000	      0.95931659586543527000	     -0.35853026870491311000	      3.24812390922527610000	      6.27686579695598650000	      6.81949263468940980000	    -32.19297324313232900000	     20.14426101926028100000	      0.00000000000000166896	     -0.00000000000001118655	     37.54746833575097800000	     -3.29077887993926370000	     -5.39278304029600350000	   -104.03710825814670000000	      1.79706363682535830000	      0.00000000000000406590	     -0.00000000000001189154	    -15.16594540505502100000	      5.74673863854040160000	      8.31970083787250300000	     -5.13688371889858250000	    -35.05872329179759100000	     -4.66142787710646630000	    118.65074334187818000000	     67.66044647318493300000	     -0.00000000000000101830	     -0.00000000000000092013	    -36.29697432452633900000	    -22.08107312441070400000	     -0.34172279707317094000	    124.29268452859036000000	    100.25851778638287000000	     -0.00000000000000771520	     -0.00000000000000200647
      1.00957999999999990000	     -0.96917405222951414000	     -2.78387234258207660000	     -6.67343441676222860000	      0.72973041743689471000	      0.95989434284642705000	     -0.35851470630275328000	      2.88131146532198730000	      6.16172114920609550000	      6.83352964746257460000	    -31.83705550141497700000	     19.96075682737841500000	      0.00000000000000159353	     -0.00000000000001126557	     37.71097611274821300000	     -3.21599452165342160000	     -5.39749142019695590000	   -103.71830448189883000000	      1.85218774617185740000	      0.00000000000000403038	     -0.00000000000001201567	    -15.10724685886422100000	      5.67451484090851550000	      8.39451743563320110000	     -5.08928816549788630000	    -35.00481139579876100000	     -4.50063517102880970000	    118.76664307084724000000	     67.72235802223167400000	     -0.00000000000000102869	     -0.00000000000000082107	    -36.40059225781572400000	    -22.11807101207898900000	     -0.33641165329712441000	    124.40087686217417000000	    100.27527937625517000000	     -0.00000000000000780112	     -0.00000000000000206679
      1.01058000000000000000	     -0.97807972842493596000	     -2.72236369235102860000	     -6.64977155214906550000	      0.72997203720836090000	      0.96048012052904463000	     -0.35850012646480695000	      2.51327218660212900000	      6.04522633896156680000	      6.84704375210408140000	    -31.47847258986709600000	     19.76788506989357700000	      0.00000000000000153887	     -0.00000000000001136340	     37.86942452186051600000	     -3.13930587788324940000	     -5.40309090484406160000	   -103.39240284776756000000	      1.90753454508013710000	      0.00000000000000399608	     -0.00000000000001217104	    -15.04857464320502400000	      5.60064614006319590000	      8.46842852293984190000	     -5.04302975377635310000	    -34.95151764550462300000	     -4.33780992741362330000	    118.88237046170710000000	     67.78440953214061400000	     -0.00000000000000103902	     -0.00000000000000071387	    -36.50429805474963300000	    -22.15665049960485100000	     -0.33088412290929764000	    124.50925977882321000000	    100.29603386653376000000	     -0.00000000000000788838	     -0.00000000000000212674
      1.01157999999999990000	     -0.98638967281481604000	     -2.65959508953917820000	     -6.62573015404670060000	      0.73021916908656515000	      0.96107374263065570000	     -0.35848654545993319000	      2.14407595037114130000	      5.92742124412567860000	      6.85990758995831310000	    -31.11742060850678000000	     19.56550735457991100000	      0.00000000000000149401	     -0.00000000000001147582	     38.02277981105681400000	     -3.06077457618722850000	     -5.40953131283903850000	   -103.05948391619476000000	      1.96302439442047110000	      0.00000000000000395255	     -0.00000000000001234556	    -14.98998912555927500000	      5.52518134516257580000	      8.54142079396192780000	     -4.99806389638470260000	    -34.89885190746910100000	     -4.17297907987932070000	    118.99786850520550000000	     67.84652805997484400000	     -0.00000000000000104925	     -0.00000000000000061638	    -36.60807622424052700000	    -22.19677343931398600000	     -0.32520120496985006000	    124.61778453870362000000	    100.32067175156686000000	     -0.00000000000000798207	     -0.00000000000000218668
      1.01258000000000000000	     -0.99406905592164796000	     -2.59561577725608840000	     -6.60130327815849240000	      0.73047172889865786000	      0.96167501799304467000	     -0.35847398049028917000	      1.77379567832172100000	      5.80834686338520710000	      6.87199238161386280000	    -30.75409518070495100000	     19.35348621466400900000	      0.00000000000000150860	     -0.00000000000001162495	     38.17101324242254600000	     -2.98046457362661510000	     -5.41676156466933990000	   -102.71962908710354000000	      2.01857624410379530000	      0.00000000000000389246	     -0.00000000000001255007	    -14.93154766393740100000	      5.44817180856971460000	      8.61348143663972540000	     -4.95434797334864290000	    -34.84682455131768800000	     -4.00617170323385090000	    119.11308177085220000000	     67.90864562358007100000	     -0.00000000000000105933	     -0.00000000000000053668	    -36.71191262239102600000	    -22.23840057820406800000	     -0.31942266886566645000	    124.72640627088508000000	    100.34906279428807000000	     -0.00000000000000807201	     -0.00000000000000224809
      1.01357999999999990000	     -1.00108604399638250000	     -2.53047638630666370000	     -6.57648448935375460000	      0.73072963038162697000	      0.96228375053818593000	     -0.35846244923345005000	      1.40250730715799920000	      5.68804531012762200000	      6.88316869082045010000	    -30.38869117514206400000	     19.13168805183014600000	      0.00000000000000150685	     -0.00000000000001180598	     38.31410119107906100000	     -2.89844194853626910000	     -5.42472999495061270000	   -102.37292049113815000000	      2.07410824225846290000	      0.00000000000000381977	     -0.00000000000001275568	    -14.87330436650777100000	      5.36967110245412550000	      8.68459826813550610000	     -4.91184130661198280000	    -34.79544642485657800000	     -3.83741876596405660000	    119.22795643818122000000	     67.97069956704972100000	     -0.00000000000000107018	     -0.00000000000000046725	    -36.81579441535871000000	    -22.28149170656438100000	     -0.31360690889042486000	    124.83508378231160000000	    100.38105701530297000000	     -0.00000000000000817802	     -0.00000000000000231138
